# ProBuilder 5.0.4
# https://unity3d.com/unity/features/worldbuilding/probuilder
# 27/06/2022 1:44:31 PM

mtllib ./2x2x2.mtl
o 2x2x2

g 2x2x2
v -4.586221E-08 2 2
v -4.586221E-08 0 2
v -2 0 2
v -2 2 2
v -2 0 0
v -2 2 0
v -4.586221E-08 2 0
v 0 0 0

vt -4.586221E-08 2
vt -4.586221E-08 0
vt -2 0
vt -2 2
vt 2 2
vt 2 0

vn 0 0 1
vn -1 0 0
vn 0 1 0
vn 0 0 -1
vn 1 0 0
vn 0 -1 0

usemtl ConcreteBlocks
f 4/4/1 3/3/1 2/2/1 1/1/1
f 6/1/2 5/2/2 3/6/2 4/5/2
f 6/6/3 4/5/3 1/1/3 7/2/3
f 8/2/4 5/6/4 6/5/4 7/1/4
f 8/2/5 7/1/5 1/4/5 2/3/5
f 3/4/6 5/3/6 8/2/6 2/1/6

