# ProBuilder 5.0.4
# https://unity3d.com/unity/features/worldbuilding/probuilder
# 16/06/2022 3:25:29 PM

mtllib ./VentCorner.mtl
o VentCorner

g Cube
v 0 0 0
v -1 0 0
v 0 2.00005 0
v -1 2.00005 0
v -1 0 -1
v -1 1 -1
v 0 0 -1
v 0 1 -1
v -1 1 -2.0001
v 0 1 -2.0001
v -1 2.000099 -2.0001
v 0 2.000099 -2.0001

vt 0 0
vt -1 0
vt 0 2.00005
vt -1 2.00005
vt -1 1
vt 1 0
vt 1 1
vt 0 1
vt 0 -1
vt -1 -1
vt 1 2.000099
vt -1 -2.0001
vt 0 -2.0001
vt -2.0001 2.000099
vt -2.0001 1
vt 2.0001 1
vt 2.0001 2.000099
vt 1 -2.00015

vn 0 0 1
vn -1 0 0
vn 0 0 -1
vn 1 0 0
vn 0 -1 0
vn 0 1 2.479429E-05

usemtl Debug_32x32_-_White
f 3/3/1 4/4/1 2/2/1 1/1/1
f 4/3/2 6/5/2 5/2/2 2/1/2
f 6/7/3 8/8/3 7/1/3 5/6/3
f 8/7/4 3/3/4 1/1/4 7/6/4
f 1/1/5 2/2/5 5/10/5 7/9/5
f 11/11/3 12/3/3 10/8/3 9/7/3
f 9/12/5 10/13/5 8/9/5 6/10/5
f 11/14/2 9/15/2 6/5/2 4/3/2
f 10/16/4 12/17/4 3/3/4 8/7/4
f 12/13/6 11/18/6 4/6/6 3/1/6

