# Blender 3.3.1
# www.blender.org
mtllib TruckOpeningSegment2.mtl
o TruckOpeningSegment
v 52.000347 -113.558502 236.440659
v 45.772873 -102.963814 242.918839
v 49.046032 -109.144470 243.207184
v 49.516979 -114.840096 236.216095
v 46.512444 -110.454857 242.981873
v 43.400368 -104.190155 242.712753
v 40.955521 -105.384872 242.503784
v 46.737125 -116.198074 235.972366
v 43.953896 -111.705208 242.759979
v 43.963600 -117.478058 235.735016
v 41.339130 -112.911980 242.536682
v 38.500751 -106.517609 242.294876
v 36.011227 -107.604416 242.082260
v 41.114239 -118.721886 235.493851
v 38.645145 -114.087357 242.307861
v 33.404434 -108.681190 241.857117
v 38.164345 -119.938087 235.244339
v 35.881237 -115.226456 242.071732
v 30.723330 -109.726517 241.621277
v 33.053726 -116.326668 241.826981
v 35.258728 -121.068855 234.995728
v 27.926197 -110.754311 241.368942
v 30.166136 -117.384552 241.571945
v 32.313629 -122.150558 234.738327
v 29.307411 -123.189491 234.469345
v 27.162657 -118.418236 241.299820
v 25.013588 -111.758133 241.098160
v 27.679977 -123.717667 234.321014
v 22.211134 -112.662956 240.828476
v 24.098341 -119.404533 241.012192
v 25.820768 -124.313217 234.149216
v 19.409481 -113.507736 240.548172
v 21.061100 -120.317192 240.715408
v 22.782503 -125.226181 233.856430
v 16.400341 -114.353874 240.234451
v 17.951214 -121.184418 240.398361
v 19.800051 -126.061737 233.556137
v 14.444174 -114.859703 240.019882
v 16.716633 -126.859665 233.230911
v 14.841701 -121.982697 240.066437
v 13.038522 -115.217751 239.864426
v 15.053453 -127.255142 233.049332
v 10.212170 -115.881790 239.538086
v 11.626862 -122.737030 239.704620
v 13.122395 -127.706467 232.834732
v 8.484203 -123.405029 239.330795
v 7.134246 -116.536575 239.163345
v 10.132090 -128.345367 232.482773
v 7.002589 -128.944290 232.093018
v 5.367412 -123.995773 238.938705
v 4.179739 -117.097305 238.783447
v 2.499219 -117.378021 238.554611
v 5.305508 -129.230103 231.871826
v 2.122621 -124.534653 238.506317
v 0.973309 -117.628273 238.345474
v 3.447467 -129.535690 231.625610
v -1.914259 -118.036903 237.927704
v -1.123480 -124.992645 238.045013
v 0.272383 -129.984848 231.177338
v -4.297197 -125.359833 237.564117
v -4.961055 -118.390900 237.458908
v -2.871703 -130.350815 230.703979
v -9.015320 -118.713837 236.678284
v -8.417297 -125.639130 237.054092
v -5.919326 -130.625946 230.211853
v -13.497190 -125.934105 235.327286
v -15.900684 -130.916382 228.346466
v -13.433780 -118.834137 236.025681
v -19.635082 -118.832779 234.700699
v -18.582720 -130.823883 227.763596
v -19.926981 -125.826927 234.635468
v -21.636333 -130.603485 227.048950
v -22.944647 -125.614883 233.931808
v -22.394949 -118.637573 234.063690
v -23.084599 -130.444061 226.679352
v -24.011278 -118.459839 233.662247
v -25.391872 -125.346954 233.314896
v -25.215218 -118.324196 233.361679
v -24.704590 -130.256226 226.263779
v -26.093897 -125.264290 233.131363
v -25.644800 -130.111923 226.003403
v -26.798309 -118.081779 232.938034
v -26.699642 -129.945068 225.709244
v -27.826212 -125.000275 232.657700
v -27.830240 -117.920700 232.659821
v -27.616745 -129.796005 225.451401
v -28.790895 -124.850296 232.390717
v -28.773579 -129.562805 225.101868
v -29.863333 -124.641479 232.072800
v -29.097015 -117.668106 232.294220
v -29.801689 -129.348450 224.787262
v -31.577017 -124.298218 231.562042
v -30.304914 -117.428032 231.945374
v -30.571840 -129.185837 224.549988
v -31.350079 -128.983292 224.290176
v -32.386307 -124.102486 231.297806
v -31.357248 -117.164444 231.616638
v -32.367390 -128.715378 223.948242
v -33.383106 -123.854599 230.972641
v -32.332951 -116.922119 231.313400
v -33.314487 -128.460373 223.626785
v -34.402355 -123.594742 230.636642
v -33.131824 -116.702652 231.053406
v -34.391537 -128.118362 223.231583
v -35.374462 -123.301674 230.290955
v -34.017319 -116.430283 230.753876
v -35.378799 -127.795143 222.863968
v -36.388542 -122.991096 229.927765
v -34.657982 -116.236038 230.538284
v -35.267803 -116.043655 230.328156
v -36.131680 -127.543739 222.579788
v -37.080929 -122.776039 229.676788
v -36.620701 -127.351234 222.379288
v -37.822529 -122.503464 229.385864
v -36.177933 -115.704239 229.992828
v -37.108761 -127.157837 222.178284
v -37.595829 -126.963638 221.976685
v -38.788525 -122.146385 229.004578
v -36.802380 -115.475937 229.764587
v -38.081841 -126.768440 221.774490
v -37.353611 -115.273323 229.562241
v -38.709282 -126.514198 221.515182
v -39.635323 -121.829491 228.668961
v -8.417297 -125.000038 233.073090
v -13.497190 -125.002136 232.245285
vn 0.1582 0.5025 -0.8500
vn 0.1446 0.5030 -0.8521
vn 0.1393 0.4974 -0.8563
vn -0.1521 0.4490 -0.8805
vn 0.3185 -0.7243 0.6115
vn 0.3200 -0.7238 0.6113
vn -0.0884 -0.0003 0.9961
vn -0.1551 0.4480 -0.8805
vn -0.0865 -0.0002 0.9963
vn -0.1460 0.4527 -0.8796
vn -0.0854 0.0004 0.9963
vn -0.1446 0.4538 -0.8793
vn 0.3042 -0.7321 0.6096
vn 0.3048 -0.7319 0.6094
vn -0.0862 -0.0005 0.9963
vn -0.1361 0.4579 -0.8785
vn 0.2892 -0.7394 0.6080
vn 0.2893 -0.7394 0.6080
vn -0.0851 -0.0000 0.9964
vn -0.1365 0.4578 -0.8785
vn -0.0848 -0.0000 0.9964
vn -0.1268 0.4621 -0.8777
vn -0.1273 0.4618 -0.8778
vn 0.2743 -0.7461 0.6067
vn 0.2740 -0.7461 0.6068
vn -0.0847 0.0001 0.9964
vn -0.0851 0.0001 0.9964
vn -0.1168 0.4661 -0.8770
vn -0.0859 -0.0002 0.9963
vn -0.1177 0.4655 -0.8772
vn 0.2590 -0.7524 0.6056
vn 0.2584 -0.7525 0.6057
vn -0.0853 0.0004 0.9964
vn -0.1061 0.4699 -0.8763
vn 0.2428 -0.7586 0.6047
vn -0.0862 -0.0000 0.9963
vn -0.0877 0.0001 0.9961
vn -0.1075 0.4691 -0.8766
vn 0.2433 -0.7582 0.6049
vn -0.0950 0.4735 -0.8756
vn 0.2267 -0.7643 0.6037
vn -0.0880 -0.0000 0.9961
vn -0.0899 0.0001 0.9960
vn -0.0969 0.4724 -0.8760
vn 0.2277 -0.7637 0.6041
vn -0.0862 0.4760 -0.8752
vn 0.2118 -0.7691 0.6030
vn 0.2101 -0.7693 0.6034
vn -0.0902 -0.0000 0.9959
vn -0.0828 0.4765 -0.8753
vn -0.0927 0.0003 0.9957
vn -0.0757 0.4788 -0.8747
vn 0.1963 -0.7739 0.6022
vn -0.0708 0.4798 -0.8745
vn -0.0956 -0.0007 0.9954
vn 0.1928 -0.7745 0.6024
vn -0.0937 0.0009 0.9956
vn -0.0726 0.4790 -0.8748
vn 0.1925 -0.7747 0.6024
vn -0.0582 0.4829 -0.8737
vn 0.1754 -0.7794 0.6015
vn -0.0972 -0.0001 0.9953
vn -0.0996 0.0003 0.9950
vn -0.0605 0.4818 -0.8742
vn 0.1761 -0.7790 0.6018
vn -0.0455 0.4855 -0.8731
vn -0.1035 -0.0007 0.9946
vn 0.1574 -0.7839 0.6006
vn -0.1016 0.0008 0.9948
vn -0.0478 0.4844 -0.8735
vn 0.1589 -0.7832 0.6012
vn -0.0307 0.4885 -0.8720
vn -0.0340 0.4872 -0.8726
vn 0.1406 -0.7878 0.5996
vn 0.1382 -0.7879 0.6001
vn -0.1061 -0.0002 0.9944
vn -0.1091 0.0004 0.9940
vn -0.0279 0.4882 -0.8723
vn -0.1100 0.0004 0.9939
vn -0.0213 0.4899 -0.8715
vn 0.1229 -0.7916 0.5985
vn -0.0147 0.4908 -0.8712
vn 0.1185 -0.7921 0.5988
vn -0.1118 -0.0001 0.9937
vn -0.1148 0.0004 0.9934
vn -0.0176 0.4898 -0.8717
vn 0.1186 -0.7921 0.5988
vn 0.0982 -0.7961 0.5972
vn -0.1181 -0.0002 0.9930
vn 0.0010 0.4933 -0.8698
vn -0.1210 0.0004 0.9927
vn -0.0026 0.4919 -0.8707
vn 0.0996 -0.7954 0.5978
vn 0.0135 0.4949 -0.8688
vn 0.0788 -0.7994 0.5957
vn 0.0765 -0.7993 0.5961
vn -0.1248 -0.0003 0.9922
vn 0.0178 0.4949 -0.8688
vn -0.1276 0.0004 0.9918
vn 0.0349 0.4977 -0.8666
vn 0.0295 0.4962 -0.8677
vn 0.0577 -0.8025 0.5939
vn 0.0541 -0.8026 0.5940
vn -0.1320 -0.0004 0.9912
vn -0.1350 0.0004 0.9908
vn 0.0372 0.4975 -0.8667
vn 0.0333 0.4964 -0.8674
vn 0.0534 -0.8028 0.5938
vn -0.1359 0.0005 0.9907
vn 0.0545 0.4993 -0.8647
vn 0.0297 -0.8058 0.5914
vn -0.1407 -0.0003 0.9901
vn -0.1432 0.0004 0.9897
vn 0.0517 0.4984 -0.8654
vn 0.0304 -0.8056 0.5917
vn 0.0044 -0.8084 0.5886
vn -0.1498 -0.0004 0.9887
vn 0.0745 0.5008 -0.8623
vn -0.1521 0.0004 0.9884
vn 0.0717 0.5000 -0.8631
vn 0.0054 -0.8081 0.5890
vn 0.1244 0.5043 -0.8545
vn -0.0176 -0.8102 0.5858
vn -0.1231 0.0033 0.9924
vn -0.1918 0.0367 0.9808
vn 0.0950 0.4939 -0.8643
vn -0.0210 -0.8116 0.5838
vn -0.0887 -0.7960 0.5987
vn 0.1809 0.5010 -0.8463
vn 0.2000 0.5037 -0.8404
vn -0.1592 -0.7768 0.6092
vn -0.0756 -0.8134 0.5767
vn -0.1081 -0.0964 0.9895
vn -0.2089 -0.0004 0.9779
vn 0.2312 0.5023 -0.8332
vn -0.1881 -0.8115 0.5533
vn -0.1860 -0.8120 0.5532
vn -0.2271 0.0004 0.9739
vn 0.2280 0.5031 -0.8336
vn -0.2249 -0.0007 0.9744
vn 0.2654 0.5001 -0.8243
vn -0.2275 -0.8085 0.5427
vn 0.2601 0.5011 -0.8254
vn -0.2254 -0.8089 0.5430
vn -0.2444 0.0009 0.9697
vn -0.2411 -0.0006 0.9705
vn 0.2623 0.5009 -0.8248
vn 0.2691 0.5009 -0.8226
vn -0.2324 -0.8087 0.5404
vn -0.2423 -0.0004 0.9702
vn -0.2362 -0.8081 0.5396
vn -0.2529 -0.0001 0.9675
vn 0.3016 0.4969 -0.8137
vn -0.2701 -0.8040 0.5298
vn 0.2945 0.4983 -0.8155
vn 0.3051 0.4974 -0.8121
vn -0.2745 -0.8031 0.5289
vn -0.2675 -0.8050 0.5295
vn -0.2636 0.0014 0.9646
vn -0.2586 -0.0007 0.9660
vn 0.2973 0.4986 -0.8142
vn 0.3088 0.4976 -0.8106
vn -0.2786 -0.8033 0.5265
vn -0.2712 -0.8049 0.5278
vn -0.2666 0.0006 0.9638
vn -0.2605 -0.0014 0.9655
vn 0.3412 0.4922 -0.8008
vn -0.3161 -0.7970 0.5146
vn -0.3086 -0.7991 0.5159
vn -0.2838 0.0021 0.9589
vn 0.3306 0.4949 -0.8036
vn -0.2773 -0.0000 0.9608
vn 0.3469 0.4922 -0.7984
vn -0.3226 -0.7963 0.5117
vn -0.3131 -0.7989 0.5135
vn -0.2855 0.0009 0.9584
vn 0.3305 0.4961 -0.8029
vn -0.2778 -0.0022 0.9606
vn 0.3496 0.4931 -0.7966
vn -0.3251 -0.7970 0.5090
vn 0.3878 0.4844 -0.7842
vn -0.3699 -0.7862 0.4950
vn -0.3541 -0.7912 0.4987
vn -0.3094 0.0042 0.9509
vn 0.3694 0.4898 -0.7897
vn -0.2981 0.0003 0.9545
vn 0.3907 0.4852 -0.7823
vn -0.3727 -0.7864 0.4926
vn -0.3584 -0.7911 0.4956
vn -0.3096 0.0022 0.9509
vn 0.3675 0.4919 -0.7893
vn -0.2972 -0.0019 0.9548
vn 0.3954 0.4857 -0.7796
vn -0.3777 -0.7861 0.4893
vn -0.3639 -0.7907 0.4924
vn -0.3129 0.0007 0.9498
vn 0.3884 0.4878 -0.7818
vn -0.3096 -0.0004 0.9509
vn 0.4323 0.4767 -0.7654
vn -0.4195 -0.7749 0.4728
vn -0.4047 -0.7806 0.4763
vn -0.3338 0.0045 0.9426
vn 0.4104 0.4842 -0.7728
vn -0.3206 -0.0005 0.9472
vn 0.4395 0.4761 -0.7617
vn -0.4275 -0.7734 0.4681
vn -0.4084 -0.7809 0.4727
vn -0.3363 0.0030 0.9417
vn 0.4076 0.4873 -0.7723
vn -0.3200 -0.0037 0.9474
vn 0.4177 0.4843 -0.7687
vn 0.4453 0.4771 -0.7577
vn -0.4331 -0.7729 0.4637
vn -0.4126 -0.7807 0.4693
vn -0.3402 0.0022 0.9404
vn -0.3268 -0.0034 0.9451
vn 0.4861 0.4629 -0.7412
vn -0.4799 -0.7566 0.4441
vn -0.4584 -0.7657 0.4512
vn -0.3628 0.0075 0.9318
vn 0.4547 0.4751 -0.7533
vn 0.4883 0.4644 -0.7388
vn -0.4818 -0.7571 0.4412
vn -0.3457 -0.0001 0.9383
vn 0.4903 0.4637 -0.7380
vn -0.4838 -0.7562 0.4404
vn -0.4601 -0.7668 0.4475
vn -0.3654 0.0053 0.9308
vn 0.4505 0.4794 -0.7531
vn 0.4928 0.4647 -0.7357
vn -0.4857 -0.7572 0.4366
vn -0.3447 -0.0043 0.9387
vn 0.4524 0.4804 -0.7514
vn 0.4926 0.4665 -0.7346
vn -0.4869 -0.7567 0.4362
vn -0.4629 -0.7678 0.4429
vn -0.3674 0.0034 0.9301
vn -0.3469 -0.0071 0.9379
vn 0.0992 0.5192 -0.8488
vn 1.0000 -0.0087 -0.0026
vn -0.1390 -0.8238 0.5496
vn -0.9961 -0.0868 -0.0139
vn 0.3728 0.1727 0.9117
vt 55.771847 8.145370
vt 55.771847 3.068130
vt 49.544373 18.740059
vt 52.817532 9.834656
vt 52.817532 12.559402
vt 53.288479 6.863777
vt 53.288479 2.843567
vt 50.283943 9.609344
vt 50.283943 11.249016
vt 47.171867 17.513718
vt 44.727020 16.319000
vt 50.508625 5.505798
vt 50.508625 2.599838
vt 47.725395 9.387451
vt 47.725395 9.998665
vt 47.735100 4.225815
vt 47.735100 2.362488
vt 45.110630 9.164154
vt 45.110630 8.791893
vt 42.272251 15.186264
vt 39.782726 14.099457
vt 44.885738 2.981987
vt 44.885738 2.121323
vt 42.416645 8.935333
vt 42.416645 7.616516
vt 37.175934 13.022682
vt 41.935844 1.765785
vt 41.935844 1.871811
vt 39.652737 8.699203
vt 39.652737 6.477417
vt 34.494831 11.977356
vt 36.825226 8.454453
vt 36.825226 5.377205
vt 39.030228 0.635017
vt 39.030228 1.623199
vt 31.697699 10.949562
vt 33.937637 8.199417
vt 33.937637 4.319321
vt 36.085129 -0.446686
vt 36.085129 1.365799
vt 33.078911 -1.485619
vt 33.078911 1.096817
vt 30.934158 7.927292
vt 30.934158 3.285637
vt 28.785089 9.945740
vt 31.451479 -2.013794
vt 31.451479 0.948486
vt 25.982635 9.040916
vt 27.869843 7.639664
vt 27.869843 2.299339
vt 29.592270 -2.609344
vt 29.592270 0.776688
vt 23.180983 8.196136
vt 24.832602 7.342880
vt 24.832602 1.386681
vt 26.554005 -3.522308
vt 26.554005 0.483902
vt 20.171843 7.349998
vt 21.722715 7.025833
vt 21.722715 0.519455
vt 23.571552 -4.357864
vt 23.571552 0.183609
vt 18.215675 6.844170
vt 20.488134 -5.155792
vt 20.488134 -0.141617
vt 18.613201 6.693909
vt 18.613201 -0.278824
vt 16.810022 6.486122
vt 18.824955 -5.551270
vt 18.824955 -0.323196
vt 13.983670 5.822083
vt 15.398362 6.332092
vt 15.398362 -1.033157
vt 16.893896 -6.002594
vt 16.893896 -0.537796
vt 12.255704 5.958267
vt 12.255704 -1.701157
vt 10.905746 5.167297
vt 13.903590 -6.641502
vt 13.903590 -0.889755
vt 10.774090 -7.240425
vt 10.774090 -1.279510
vt 9.138913 5.566177
vt 9.138913 -2.291901
vt 7.951240 4.606567
vt 6.270720 4.325851
vt 9.077008 -7.526237
vt 9.077008 -1.500702
vt 5.894122 5.133789
vt 5.894122 -2.830780
vt 4.744810 4.075600
vt 7.218967 -7.831825
vt 7.218967 -1.746918
vt 1.857242 3.666969
vt 2.648021 4.672485
vt 2.648021 -3.288773
vt 4.043883 -8.280983
vt 4.043883 -2.195190
vt -0.525696 4.191589
vt -0.525696 -3.655960
vt -1.189554 3.312973
vt 0.899797 -8.646950
vt 0.899797 -2.668549
vt -5.243819 2.990036
vt 2.990036 3.305756
vt -4.645797 -3.935257
vt -4.645797 3.681564
vt -3.935257 3.681564
vt -2.147825 -3.160675
vt -2.147825 -8.922081
vt -4.230232 1.954758
vt -9.725690 1.954758
vt -9.725690 -4.230232
vt -12.129184 -5.026062
vt -12.129184 -9.212517
vt -9.662279 2.869736
vt 2.869736 2.653152
vt -15.863581 2.871094
vt -14.811219 -9.120018
vt -14.811219 -5.608932
vt -16.155479 1.262939
vt -16.155479 -4.123055
vt -17.864832 -8.899620
vt -17.864832 -6.323578
vt -19.173145 0.559280
vt -19.173145 -3.911011
vt -18.623447 3.066299
vt -19.313097 -8.740196
vt -19.313097 -6.693176
vt -20.239777 3.244034
vt -21.620371 -0.057632
vt -21.620371 -3.643082
vt -21.443716 3.379677
vt -20.933088 -8.552361
vt -20.933088 -7.108749
vt -22.322395 -0.241165
vt -22.322395 -3.560417
vt -21.873299 -8.408058
vt -21.873299 -7.369125
vt -23.026808 3.622093
vt -22.928141 -8.241203
vt -22.928141 -7.663284
vt -24.054710 -0.714828
vt -24.054710 -3.296402
vt -24.058739 3.783173
vt -23.845243 -8.092140
vt -23.845243 -7.921127
vt -25.019394 -0.981812
vt -25.019394 -3.146423
vt -25.002077 -7.858940
vt -25.002077 -8.270660
vt -26.091831 -1.299728
vt -26.091831 -2.937607
vt -25.325514 4.035767
vt -26.030188 -7.644585
vt -26.030188 -8.585266
vt -27.805515 -1.810486
vt -27.805515 -2.594345
vt -26.533413 4.275841
vt -26.800339 -7.481972
vt -26.800339 -8.822540
vt -27.578577 -7.279427
vt -27.578577 -9.082352
vt -28.614805 -2.074722
vt -28.614805 -2.398613
vt -27.585747 4.539429
vt -28.595888 -7.011513
vt -28.595888 -9.424286
vt -29.611605 -2.399887
vt -29.611605 -2.150726
vt -28.561449 4.781754
vt -29.542986 -6.756508
vt -29.542986 -9.745743
vt -30.630854 -2.735886
vt -30.630854 -1.890869
vt -29.360323 5.001221
vt -30.620035 -6.414497
vt -30.620035 -10.140945
vt -31.602962 -3.081573
vt -31.602962 -1.597801
vt -30.245817 5.273590
vt -31.607300 -6.091270
vt -31.607300 -10.508560
vt -32.617043 -3.444763
vt -32.617043 -1.287224
vt -30.886480 5.467834
vt -31.496302 5.660217
vt -32.360180 -5.839867
vt -32.360180 -10.792740
vt -33.309429 -3.695740
vt -33.309429 -1.072166
vt -32.849201 -5.647362
vt -32.849201 -10.993240
vt -34.051029 -3.986664
vt -34.051029 -0.799591
vt -32.406433 5.999634
vt -33.337261 -5.453964
vt -33.337261 -11.194244
vt -33.824329 -5.259766
vt -33.824329 -11.395844
vt -35.017025 -4.367950
vt -35.017025 -0.442513
vt -33.030880 6.227936
vt -34.310341 -5.064568
vt -34.310341 -11.598038
vt -33.582111 6.430550
vt -34.937782 -4.810326
vt -34.937782 -11.857346
vt -35.863823 -4.703568
vt -35.863823 -0.125618
vt -3.296165 -0.299438
vt -4.645797 -3.296165
vt -3.298264 -1.127243
vt -9.725690 -3.298264
s 0
usemtl Debug_32x32_-_Glass
f 65/110/1 124/212/1 63/104/1
f 67/115/2 125/214/2 65/110/2
f 65/110/3 125/214/3 124/212/3
f 1/1/4 4/6/4 2/3/4
f 4/7/5 1/2/5 3/4/5
f 3/4/6 5/8/6 4/7/6
f 5/9/7 3/5/7 2/3/7
f 6/10/8 2/3/8 4/6/8
f 2/3/9 6/10/9 5/9/9
f 7/11/10 6/10/10 4/6/10
f 6/10/11 7/11/11 5/9/11
f 4/6/12 8/12/12 7/11/12
f 8/13/13 4/7/13 5/8/13
f 5/8/14 9/14/14 8/13/14
f 9/15/15 5/9/15 7/11/15
f 8/12/16 10/16/16 7/11/16
f 10/17/17 8/13/17 9/14/17
f 9/14/18 11/18/18 10/17/18
f 11/19/19 9/15/19 7/11/19
f 12/20/20 7/11/20 10/16/20
f 7/11/21 12/20/21 11/19/21
f 13/21/22 12/20/22 10/16/22
f 10/16/23 14/22/23 13/21/23
f 14/23/24 10/17/24 11/18/24
f 11/18/25 15/24/25 14/23/25
f 15/25/26 11/19/26 12/20/26
f 12/20/27 13/21/27 15/25/27
f 16/26/28 13/21/28 14/22/28
f 13/21/29 16/26/29 15/25/29
f 14/22/30 17/27/30 16/26/30
f 17/28/31 14/23/31 15/24/31
f 15/24/32 18/29/32 17/28/32
f 18/30/33 15/25/33 16/26/33
f 19/31/34 16/26/34 17/27/34
f 18/29/35 20/32/35 17/28/35
f 20/33/36 18/30/36 16/26/36
f 16/26/37 19/31/37 20/33/37
f 17/27/38 21/34/38 19/31/38
f 21/35/39 17/28/39 20/32/39
f 22/36/40 19/31/40 21/34/40
f 20/32/41 23/37/41 21/35/41
f 23/38/42 20/33/42 19/31/42
f 19/31/43 22/36/43 23/38/43
f 21/34/44 24/39/44 22/36/44
f 24/40/45 21/35/45 23/37/45
f 24/39/46 25/41/46 22/36/46
f 25/42/47 24/40/47 23/37/47
f 23/37/48 26/43/48 25/42/48
f 26/44/49 23/38/49 22/36/49
f 27/45/50 22/36/50 25/41/50
f 22/36/51 27/45/51 26/44/51
f 25/41/52 28/46/52 27/45/52
f 28/47/53 25/42/53 26/43/53
f 29/48/54 27/45/54 28/46/54
f 27/45/55 29/48/55 26/44/55
f 26/43/56 30/49/56 28/47/56
f 30/50/57 26/44/57 29/48/57
f 28/46/58 31/51/58 29/48/58
f 31/52/59 28/47/59 30/49/59
f 32/53/60 29/48/60 31/51/60
f 30/49/61 33/54/61 31/52/61
f 33/55/62 30/50/62 29/48/62
f 29/48/63 32/53/63 33/55/63
f 31/51/64 34/56/64 32/53/64
f 34/57/65 31/52/65 33/54/65
f 35/58/66 32/53/66 34/56/66
f 32/53/67 35/58/67 33/55/67
f 33/54/68 36/59/68 34/57/68
f 36/60/69 33/55/69 35/58/69
f 34/56/70 37/61/70 35/58/70
f 37/62/71 34/57/71 36/59/71
f 38/63/72 35/58/72 37/61/72
f 37/61/73 39/64/73 38/63/73
f 39/65/74 37/62/74 36/59/74
f 36/59/75 40/66/75 39/65/75
f 40/67/76 36/60/76 35/58/76
f 35/58/77 38/63/77 40/67/77
f 41/68/78 38/63/78 39/64/78
f 38/63/79 41/68/79 40/67/79
f 39/64/80 42/69/80 41/68/80
f 42/70/81 39/65/81 40/66/81
f 43/71/82 41/68/82 42/69/82
f 40/66/83 44/72/83 42/70/83
f 44/73/84 40/67/84 41/68/84
f 41/68/85 43/71/85 44/73/85
f 42/69/86 45/74/86 43/71/86
f 45/75/87 42/70/87 44/72/87
f 44/72/88 46/76/88 45/75/88
f 46/77/89 44/73/89 43/71/89
f 47/78/90 43/71/90 45/74/90
f 43/71/91 47/78/91 46/77/91
f 45/74/92 48/79/92 47/78/92
f 48/80/93 45/75/93 46/76/93
f 48/79/94 49/81/94 47/78/94
f 49/82/95 48/80/95 46/76/95
f 46/76/96 50/83/96 49/82/96
f 50/84/97 46/77/97 47/78/97
f 51/85/98 47/78/98 49/81/98
f 47/78/99 51/85/99 50/84/99
f 52/86/100 51/85/100 49/81/100
f 49/81/101 53/87/101 52/86/101
f 53/88/102 49/82/102 50/83/102
f 50/83/103 54/89/103 53/88/103
f 54/90/104 50/84/104 51/85/104
f 51/85/105 52/86/105 54/90/105
f 55/91/106 52/86/106 53/87/106
f 53/87/107 56/92/107 55/91/107
f 56/93/108 53/88/108 54/89/108
f 52/86/109 55/91/109 54/90/109
f 57/94/110 55/91/110 56/92/110
f 54/89/111 58/95/111 56/93/111
f 58/96/112 54/90/112 55/91/112
f 55/91/113 57/94/113 58/96/113
f 56/92/114 59/97/114 57/94/114
f 59/98/115 56/93/115 58/95/115
f 58/95/116 60/99/116 59/98/116
f 60/100/117 58/96/117 57/94/117
f 61/101/118 57/94/118 59/97/118
f 57/94/119 61/101/119 60/100/119
f 59/97/120 62/102/120 61/101/120
f 62/103/121 59/98/121 60/99/121
f 63/104/122 61/101/122 62/102/122
f 60/99/123 64/107/123 62/103/123
f 64/106/124 60/100/124 61/101/124
f 61/101/125 63/104/125 64/106/125
f 62/102/126 65/110/126 63/104/126
f 65/109/127 62/103/127 64/107/127
f 67/114/128 65/109/128 66/112/128
f 69/118/129 68/116/129 67/115/129
f 67/115/130 70/119/130 69/118/130
f 70/120/131 67/114/131 66/112/131
f 66/112/132 71/121/132 70/120/132
f 71/122/133 66/113/133 68/116/133
f 68/116/134 69/118/134 71/122/134
f 70/119/135 72/123/135 69/118/135
f 72/124/136 70/120/136 71/121/136
f 71/121/137 73/125/137 72/124/137
f 73/126/138 71/122/138 69/118/138
f 74/127/139 69/118/139 72/123/139
f 69/118/140 74/127/140 73/126/140
f 72/123/141 75/128/141 74/127/141
f 75/129/142 72/124/142 73/125/142
f 76/130/143 74/127/143 75/128/143
f 73/125/144 77/131/144 75/129/144
f 77/132/145 73/126/145 74/127/145
f 74/127/146 76/130/146 77/132/146
f 78/133/147 76/130/147 75/128/147
f 75/128/148 79/134/148 78/133/148
f 79/135/149 75/129/149 77/131/149
f 76/130/150 78/133/150 77/132/150
f 77/131/151 80/136/151 79/135/151
f 80/137/152 77/132/152 78/133/152
f 79/134/153 81/138/153 78/133/153
f 81/139/154 79/135/154 80/136/154
f 82/140/155 78/133/155 81/138/155
f 81/138/156 83/141/156 82/140/156
f 83/142/157 81/139/157 80/136/157
f 80/136/158 84/143/158 83/142/158
f 84/144/159 80/137/159 78/133/159
f 78/133/160 82/140/160 84/144/160
f 85/145/161 82/140/161 83/141/161
f 83/141/162 86/146/162 85/145/162
f 86/147/163 83/142/163 84/143/163
f 84/143/164 87/148/164 86/147/164
f 87/149/165 84/144/165 82/140/165
f 82/140/166 85/145/166 87/149/166
f 86/146/167 88/150/167 85/145/167
f 88/151/168 86/147/168 87/148/168
f 87/148/169 89/152/169 88/151/169
f 89/153/170 87/149/170 85/145/170
f 90/154/171 85/145/171 88/150/171
f 85/145/172 90/154/172 89/153/172
f 88/150/173 91/155/173 90/154/173
f 91/156/174 88/151/174 89/152/174
f 89/152/175 92/157/175 91/156/175
f 92/158/176 89/153/176 90/154/176
f 93/159/177 90/154/177 91/155/177
f 90/154/178 93/159/178 92/158/178
f 91/155/179 94/160/179 93/159/179
f 94/161/180 91/156/180 92/157/180
f 94/160/181 95/162/181 93/159/181
f 95/163/182 94/161/182 92/157/182
f 92/157/183 96/164/183 95/163/183
f 96/165/184 92/158/184 93/159/184
f 97/166/185 93/159/185 95/162/185
f 93/159/186 97/166/186 96/165/186
f 95/162/187 98/167/187 97/166/187
f 98/168/188 95/163/188 96/164/188
f 96/164/189 99/169/189 98/168/189
f 99/170/190 96/165/190 97/166/190
f 100/171/191 97/166/191 98/167/191
f 97/166/192 100/171/192 99/170/192
f 98/167/193 101/172/193 100/171/193
f 101/173/194 98/168/194 99/169/194
f 99/169/195 102/174/195 101/173/195
f 102/175/196 99/170/196 100/171/196
f 103/176/197 100/171/197 101/172/197
f 100/171/198 103/176/198 102/175/198
f 101/172/199 104/177/199 103/176/199
f 104/178/200 101/173/200 102/174/200
f 102/174/201 105/179/201 104/178/201
f 105/180/202 102/175/202 103/176/202
f 106/181/203 103/176/203 104/177/203
f 103/176/204 106/181/204 105/180/204
f 104/177/205 107/182/205 106/181/205
f 107/183/206 104/178/206 105/179/206
f 105/179/207 108/184/207 107/183/207
f 108/185/208 105/180/208 106/181/208
f 109/186/209 106/181/209 107/182/209
f 106/181/210 109/186/210 108/185/210
f 110/187/211 109/186/211 107/182/211
f 107/182/212 111/188/212 110/187/212
f 111/189/213 107/183/213 108/184/213
f 108/184/214 112/190/214 111/189/214
f 112/191/215 108/185/215 109/186/215
f 109/186/216 110/187/216 112/191/216
f 111/188/217 113/192/217 110/187/217
f 113/193/218 111/189/218 112/190/218
f 112/190/219 114/194/219 113/193/219
f 114/195/220 112/191/220 110/187/220
f 115/196/221 110/187/221 113/192/221
f 113/192/222 116/197/222 115/196/222
f 116/198/223 113/193/223 114/194/223
f 110/187/224 115/196/224 114/195/224
f 116/197/225 117/199/225 115/196/225
f 117/200/226 116/198/226 114/194/226
f 114/194/227 118/201/227 117/200/227
f 118/202/228 114/195/228 115/196/228
f 119/203/229 115/196/229 117/199/229
f 117/199/230 120/204/230 119/203/230
f 120/205/231 117/200/231 118/201/231
f 115/196/232 119/203/232 118/202/232
f 121/206/233 119/203/233 120/204/233
f 120/204/234 122/207/234 121/206/234
f 122/208/235 120/205/235 118/201/235
f 118/201/236 123/209/236 122/208/236
f 123/210/237 118/202/237 119/203/237
f 119/203/238 121/206/238 123/210/238
f 125/214/239 67/115/239 68/116/239
f 125/213/240 68/117/240 66/111/240
f 64/107/241 66/112/241 65/109/241
f 64/108/242 63/105/242 124/211/242
f 125/214/243 66/113/243 65/110/243 124/212/243
